<svg width="50" height="50" viewBox="0 0 50 50" fill="none" xmlns="http://www.w3.org/2000/svg">
<path d="M48.0469 28.4668C49.1256 28.4668 50 27.5924 50 26.5137V13.7207C50 9.41289 46.4953 5.9082 42.1875 5.9082H7.8125C3.50469 5.9082 0 9.41289 0 13.7207V36.2793C0 40.5871 3.50469 44.0918 7.8125 44.0918H42.1875C46.4953 44.0918 50 40.5871 50 36.2793C50 35.2006 49.1256 34.3262 48.0469 34.3262C46.9682 34.3262 46.0938 35.2006 46.0938 36.2793C46.0938 38.4332 44.3414 40.1855 42.1875 40.1855H7.8125C5.65859 40.1855 3.90625 38.4332 3.90625 36.2793V14.1346L20.8745 24.6858C22.1469 25.477 23.5734 25.8726 25 25.8726C26.4266 25.8726 27.8531 25.477 29.1255 24.6858L46.0938 14.1346V26.5137C46.0938 27.5924 46.9682 28.4668 48.0469 28.4668ZM27.0627 21.3686C25.7904 22.1597 24.2096 22.1598 22.9373 21.3686L5.53604 10.548C6.17744 10.0865 6.96377 9.81445 7.8125 9.81445H42.1875C43.0362 9.81445 43.8226 10.0866 44.464 10.5481L27.0627 21.3686Z" fill="url(#paint0_linear)"/>
<defs>
<linearGradient id="paint0_linear" x1="0" y1="25" x2="50" y2="25" gradientUnits="userSpaceOnUse">
<stop stop-color="#FE9081"/>
<stop offset="1" stop-color="#F6D3CE"/>
</linearGradient>
</defs>
</svg>
