<svg width="43" height="44" viewBox="0 0 43 44" fill="none" xmlns="http://www.w3.org/2000/svg">
<g clip-path="url(#clip0)">
<path d="M31.3712 43.9152C31.3397 43.9152 31.3084 43.9151 31.277 43.915C28.3119 43.8998 25.0813 43.1313 21.6748 41.6307C20.823 41.2554 20.4304 40.2461 20.7978 39.3761C21.1651 38.5061 22.1537 38.105 23.0053 38.4804C25.9525 39.7786 28.8186 40.4715 31.2937 40.4842C31.3193 40.4843 31.3448 40.4843 31.3703 40.4843C34.4669 40.4843 37.0521 39.5233 38.8534 37.7025L38.8653 37.689C39.9609 36.4424 39.8943 34.5545 38.7132 33.3915C34.2036 28.9503 32.0745 29.2717 30.1039 31.2342L26.9668 34.4142C26.4749 34.9129 25.7333 35.0518 25.1002 34.7637C24.9227 34.683 20.697 32.7302 15.9354 27.867L15.7142 27.6415C10.9519 22.7778 9.03964 18.4625 8.96061 18.2811C8.67868 17.6344 8.81465 16.8772 9.30293 16.3748L12.4166 13.1711C14.3381 11.1586 14.653 8.98422 10.3044 4.37855C9.16537 3.17235 7.31695 3.10425 6.09607 4.22348L6.08322 4.23532C4.2857 6.09021 3.34399 8.75881 3.35952 11.9559C3.38967 18.1245 6.81708 25.289 12.5276 31.1211C13.6164 32.2328 14.8598 33.3379 16.2233 34.4056C16.9595 34.9821 17.0987 36.0589 16.5342 36.8107C15.9697 37.5626 14.9154 37.7046 14.1792 37.1283C12.6993 35.9693 11.3443 34.7644 10.1522 33.5469C3.83 27.0903 0.0348318 19.0254 0.000314222 11.9731C-0.019926 7.82167 1.27259 4.29639 3.73829 1.77823C3.75963 1.75653 3.78146 1.73534 3.8038 1.71484L3.85201 1.67058C5.09061 0.535143 6.68766 -0.0565071 8.35198 0.00481941C10.0153 0.0660601 11.5674 0.773673 12.7226 1.9972C14.9846 4.39288 16.2904 6.4001 16.832 8.31391C17.5782 10.9513 16.8996 13.3939 14.815 15.5736C14.8118 15.5769 14.8086 15.5802 14.8054 15.5835L12.5513 17.9028C13.3506 19.3507 15.1071 22.1697 18.0892 25.2151L18.3103 25.4407C21.292 28.4858 24.0517 30.2798 25.4709 31.0968L27.7419 28.7949C27.7451 28.7916 27.7483 28.7884 27.7515 28.7852C29.886 26.6562 32.2779 25.9632 34.86 26.7253C36.734 27.2784 38.6994 28.6119 41.0452 30.922C42.2432 32.1018 42.9361 33.687 42.9961 35.3857C43.0561 37.0844 42.4769 38.7164 41.3652 39.9813L41.3216 40.0308C41.3015 40.0537 41.2808 40.0759 41.2596 40.0977C38.8128 42.5961 35.3951 43.9152 31.3712 43.9152Z" fill="url(#paint0_linear)"/>
</g>
<defs>
<linearGradient id="paint0_linear" x1="8.01086e-05" y1="21.9578" x2="43.0003" y2="21.9578" gradientUnits="userSpaceOnUse">
<stop stop-color="#F6D3CE"/>
<stop offset="1" stop-color="#FE9081"/>
</linearGradient>
<clipPath id="clip0">
<rect width="43" height="43.9149" fill="white"/>
</clipPath>
</defs>
</svg>
