<svg viewBox="0 0 21 21" fill="none" xmlns="http://www.w3.org/2000/svg">
<g clip-path="url(#clip0)">
<path d="M18.6882 19.0378L17.5813 5.20177C17.5561 4.88679 17.2932 4.64422 16.9774 4.64422H14.7563V4.24031C14.7563 1.90226 12.8541 0 10.5158 0C8.17779 0 6.27553 1.90226 6.27553 4.24031V4.64422H4.05428C3.73849 4.64422 3.47574 4.88679 3.45058 5.20177L2.34364 19.0378C2.30327 19.5417 2.47694 20.044 2.81981 20.4154C3.16283 20.7869 3.64957 21 4.15522 21H16.8766C17.3823 21 17.8689 20.7869 18.2119 20.4154C18.5549 20.044 18.7284 19.5419 18.6882 19.0378ZM7.4871 4.24031C7.4871 2.57021 8.84574 1.21156 10.5158 1.21156C12.1859 1.21156 13.5448 2.57021 13.5448 4.24031V4.64422H7.4871V4.24031ZM17.3217 19.5936C17.2057 19.7192 17.0476 19.7884 16.8766 19.7884H4.15522C3.98411 19.7884 3.82613 19.7192 3.71013 19.5936C3.59398 19.468 3.53774 19.3049 3.55136 19.1344L4.6136 5.85578H6.27553V8.07687C6.27553 8.41141 6.54678 8.68266 6.88131 8.68266C7.21585 8.68266 7.4871 8.41141 7.4871 8.07687V5.85578H13.5448V8.07687C13.5448 8.41141 13.816 8.68266 14.1505 8.68266C14.4851 8.68266 14.7563 8.41141 14.7563 8.07687V5.85578H16.4183L17.4805 19.1344C17.4941 19.3049 17.4377 19.468 17.3217 19.5936Z" fill="black"/>
<path d="M15.3621 16.3558H5.66975C5.33521 16.3558 5.06396 16.6271 5.06396 16.9616C5.06396 17.2962 5.33521 17.5674 5.66975 17.5674H15.3621C15.6966 17.5674 15.9679 17.2962 15.9679 16.9616C15.9679 16.6271 15.6966 16.3558 15.3621 16.3558Z" fill="black"/>
</g>
<defs>
<clipPath id="clip0">
<rect width="21" height="21" fill="white"/>
</clipPath>
</defs>
</svg>
