<?xml version="1.0" encoding="UTF-8"?>
<svg version="1.1" viewBox="-2 0 512 512" xmlns="http://www.w3.org/2000/svg" style="fill: white;">
   <path transform="translate(-2)" d="m178.07 0.0039062c-20.726 0.19603-43.961 10.091-65.701 28.055-19.859 16.414-36.348 37.664-45.23 58.309-13.68 31.785-32.715 115.76-45.512 184.88-10.051 54.289-25.652 149.51-17.211 177.24 1.7539 5.7617 6.7031 9.9805 12.676 10.793 0.49219 0.0664 50.316 7.082 113.56 35.316 24.379 10.883 72.551 17.406 125 17.406 8.9024 0 17.934-0.1875 26.984-0.57422 43.691-1.8633 124.91-10.133 177.96-44.547 32.758-21.246 50.074-50.02 50.074-83.199 0-32.648-8.082-60.531-23.367-80.637-19.012-25.012-47.659-32.603-74.463-30.818-31.219 2.0783-54.098 13.551-81.207 47.074-46.805-45.618-125.85-44.812-180.5 4.4512-13.131-121.77-18.885-109.88-13.322-211.11 8e-5 -13.074 11.089-23.672 24.768-23.672 13.678 4.48e-4 26.899 10.774 24.766 23.672-2.7196 16.443-11.158 20.519-7.7188 30.938 9.7339 9.7339 32.66-0.65624 43.887-12.82 22.418-24.281 29.047-52.699 18.664-80.02-16.465-43.32-45.98-50.375-62.109-50.723-0.66321-0.013916-1.3295-0.018042-1.998-0.011719z"/>
</svg>
