<?xml version="1.0" encoding="UTF-8"?>
<svg width="297.5" height="292.5" version="1.1" viewBox="0 0 297.5 292.5" xmlns="http://www.w3.org/2000/svg" fill="white">
<g transform="translate(-103.56 -72.276)">
    <g transform="translate(97.737 -105)">
        <path d="m273.68 177.28h-238.21c-16.354 0-29.648 13.295-29.648 29.655v161.66c0 16.347 13.294 29.641 29.648 29.641h79.839v39.118h-12.592c-8.791 0-15.918 7.128-15.918 15.934 0 8.791 7.127 15.904 15.918 15.904h103.71c8.792 0 15.918-7.113 15.918-15.904 0-8.806-7.127-15.934-15.918-15.934h-12.608v-39.118h79.863c16.338 0 29.64-13.294 29.64-29.641v-161.66c0-16.361-13.302-29.656-29.64-29.656zm-212.23 166.95v-116.04h187.72v116.04z" />
    </g>
    <g>
        <path d="m362.03 343.47a21.22 21.22 0 0 1-21.22 21.22 21.22 21.22 0 0 1-21.22-21.22 21.22 21.22 0 0 1 21.22-21.22 21.22 21.22 0 0 1 21.22 21.22z"/>
        <path d="m185.36 343.47a21.22 21.22 0 0 1-21.22 21.22 21.22 21.22 0 0 1-21.22-21.22 21.22 21.22 0 0 1 21.22-21.22 21.22 21.22 0 0 1 21.22 21.22z"/>
        <path d="m164.4 322.25h175.59v42.524h-175.59z"/>
    </g>
</g>
</svg>
